<?xml version="1.0" encoding="UTF-8"?>
<svg id="DigIt360" xmlns="http://www.w3.org/2000/svg" version="1.1" viewBox="0 0 1280 800">
  <!-- Generator: Adobe Illustrator 29.3.1, SVG Export Plug-In . SVG Version: 2.1.0 Build 151)  -->
  <defs>
    <style>
      .st0 {
        fill: #527d7e;
      }
    </style>
  </defs>
  <path id="_x33_" class="st0" d="M356.56,506.81c-2.17-16.6-8.71-31.47-17.87-45.31-17.53-26.49-41.69-45.46-69.01-60.84-1.07-.6-2.12-1.25-3.52-2.07,1.27-.82,2.24-1.38,3.12-2.03,7.33-5.41,15.06-10.37,21.88-16.36,21.95-19.28,32-44.02,31.07-72.98-.92-28.55-11.32-53.49-33.03-72.28-28.15-24.38-58.27-33.06-66.59-34.96-9.41-2.14-39.61-8.63-73.39,2.3-2.49.81-49.09,19.28-69.27,39.1-1.51,1.49-3.86,4.07-4.08,7.6-.15,2.42.74,4.91,2.71,7.53,1.91,2.54,4.3,4.9,6.9,6.73,12.7,8.88,26.92,13.46,42.39,14.21,3.61.18,9.47-.28,16.33-2.95,2.34-.91,3.79-1.72,13.83-8.57,7.14-4.88,14.47-9.49,21.44-14.61,1.3-.96,4.16-3.08,8.35-5.29,1.78-.94,3.97-2.01,6.84-3.1,11.27-4.28,21.94-1.59,24.83-.83,12.69,3.33,20.2,11.51,23.03,15,8.23,10.18,9.33,20.97,10.31,30.56.77,7.53,2.33,25.27-7.73,44.19-8.81,16.56-21.66,24.86-24.3,26.51-16.22,10.13-30.93,12.15-30.93,12.15-6.1.84-12.52.82-18.78,5.52-1.55,1.17-5.76,4.42-7.73,10.31-.47,1.39-1.66,5.1-.74,9.57,1.29,6.23,5.87,9.92,7.73,11.41,9.44,7.58,20.99,5.03,34.16,7.25,24.59,4.14,41.59,22.67,51.93,34.02,5.79,6.36,10.97,13.45,15.45,21.33,13.07,22.92,14.35,46.39-.84,69.03-2.63,3.92-9.31,14.41-21.94,23.69-16.94,12.45-33.8,15.19-39.38,15.9-5.61.72-16.95,2.05-30.56-1.84-10.88-3.11-18.18-8.13-27.25-14.36-9.79-6.72-17.8-14.08-22.22-18.16-9.52-8.79-9.13-10.32-14.38-13.25-8.08-4.51-16.82-6.9-25.91-8.03-8.94-1.12-17.77-.77-26.04,3.45-7.19,3.67-9.15,9.97-5.32,17.05.49.91,1.04,1.8,1.62,2.66,7.87,11.79,16.96,22.55,27.62,31.88,32.45,28.39,70.35,43.93,113.2,47.61,28.08,2.42,55.35-1.21,81.43-11.98,23.91-9.87,44.74-24.14,59.8-45.62,12.87-18.35,17.72-38.84,14.81-61.12Z"/>
  <path id="_x30_" class="st0" d="M888.87,622.8c-73.27-.25-127.33-58.7-139.2-150.46-15.15-117.11,48.21-234.86,141.17-262.31,86.25-25.47,181.05,46.87,198.13,151.97,8.98,55.29-4.56,104.67-30.86,148.65-36.72,61.42-85.76,99.27-147.37,110.92-3.6.68-7.27.98-10.92,1.18-3.64.2-7.3.04-10.95.04ZM838.67,498.32c35.81,54.4,100.82,58.83,142.39,33.21,43.09-26.55,59.41-74.57,44.53-130.98-19.31-73.21-94.75-147.98-152.26-118.76-42.48,21.58-53.89,89.13-55.52,99.7-2.65,17.12-8.64,72.01,20.87,116.83Z"/>
  <path id="_x36_" class="st0" d="M465.92,467.79c2.21-6.38,3.68-11.02,5.42-15.55,24.24-63.14,103.47-105.01,167.12-88.35,50.44,13.2,77.37,59.76,66.11,114.29-14.58,70.6-84.41,138.24-153.61,144.92-58.87,5.68-104.2-21.62-134.12-72.91-36.82-63.13-35.04-128.97-2.92-193.48,37.99-76.3,100.56-124.24,176-155.77,5.18-2.16,14.82-.96,18.29,2.76,3.58,3.83,4.35,13.38,2.55,19.17-6.45,20.76-21.63,33.57-40.65,41.72-28.38,12.16-54.8,27.59-75.82,51.15-36.83,41.27-47.99,88.98-31.99,143.01.73,2.46,1.9,4.78,3.62,9.04ZM492.7,510.27c23.96,37.31,63.72,55.12,97.14,45.23,21.22-6.28,48.5-26.29,51.64-56.34,2.16-20.68-8.27-37-12.53-42.82-13.92-19.05-34.65-25.12-46.12-26.26-34.22-3.41-72.7,28.38-90.13,80.19Z"/>
  <path id="_x30_1" data-name="_x30_" class="st0" d="M1215.85,150.27c4.78,7.72,6.3,14.7,7.28,19.45,2.3,11.1,1.28,19.96.87,22.93-1.12,6.85-3.82,16.71-10.99,25.79-18.38,23.29-60.29,33.99-89.73,12.08-26.29-19.56-30.63-56.18-20.07-78.19,4.95-10.32,13.36-17.67,14.55-18.7,2.68-2.31,14.2-11.8,32.16-14.13,13.76-1.79,24.32,1.53,28.96,3.04,2.97.97,12.92,4.44,23.26,12.92,4.11,3.37,9.23,7.59,13.71,14.82ZM1193.23,182.04c1.92-16.98-9.31-32.97-23.15-38.37-2.49-.97-11.09-4.33-20.42-.75-8.67,3.33-12.77,10.67-14.18,13.19-8.33,14.89-7.43,41.33,10.02,51.57,9.25,5.43,22.17,5.71,32.41-.5,12.96-7.86,14.99-22.11,15.33-25.15Z"/>
</svg>